<?xml version="1.0" encoding="utf-8"?>
<!-- Generator: Adobe Illustrator 23.1.0, SVG Export Plug-In . SVG Version: 6.00 Build 0)  -->
<svg version="1.1" id="Calque_1" xmlns="http://www.w3.org/2000/svg" xmlns:xlink="http://www.w3.org/1999/xlink" x="0px" y="0px"
	 viewBox="0 0 70 19" style="enable-background:new 0 0 70 19;" xml:space="preserve">
<g>
	<path d="M22.9,0.6h2.6L28.2,9h-2.3l-0.4-1.6H23L22.6,9h-2.4L22.9,0.6z M25,5.8l-0.8-3l-0.8,3H25z"/>
	<path d="M28.6,0.4h2.3v6.2c0,0.2,0,0.4,0.1,0.5c0.1,0.1,0.2,0.2,0.4,0.2c0.1,0,0.2,0,0.3,0c0.1,0,0.2-0.1,0.3-0.1l0.3,1.7
		C32,8.9,31.7,9,31.4,9c-0.3,0.1-0.7,0.1-1,0.1c-0.6,0-1.1-0.2-1.4-0.5c-0.3-0.3-0.5-0.8-0.5-1.3V0.4z"/>
	<path d="M32.8,0.4H35v6.2c0,0.2,0,0.4,0.1,0.5c0.1,0.1,0.2,0.2,0.4,0.2c0.1,0,0.2,0,0.3,0c0.1,0,0.2-0.1,0.3-0.1l0.3,1.7
		C36.3,8.9,36,9,35.6,9c-0.3,0.1-0.7,0.1-1,0.1c-0.6,0-1.1-0.2-1.4-0.5c-0.3-0.3-0.5-0.8-0.5-1.3V0.4z"/>
	<path d="M37.1,6.8v-2h2v2H37.1z"/>
	<path d="M40,2.3V0.4h2.3v1.9H40z M40,9V2.8h2.3V9H40z"/>
	<path d="M49.4,9h-2.3V5.6c0-0.3-0.1-0.5-0.2-0.7c-0.1-0.1-0.3-0.2-0.5-0.2c-0.1,0-0.3,0-0.4,0.1c-0.1,0.1-0.3,0.2-0.4,0.3
		c-0.1,0.1-0.2,0.3-0.3,0.4V9h-2.3V2.9h2v0.9c0.2-0.2,0.3-0.4,0.6-0.6C46,3.1,46.2,3,46.5,2.9c0.3-0.1,0.6-0.1,1-0.1
		c0.4,0,0.8,0.1,1,0.2c0.3,0.1,0.4,0.3,0.6,0.6c0.1,0.2,0.2,0.5,0.2,0.7c0,0.3,0.1,0.5,0.1,0.7V9z"/>
	<path d="M50.3,6.8v-2h2v2H50.3z"/>
	<path d="M57.5,9.1c-0.6,0-1.2-0.1-1.7-0.4c-0.5-0.2-1-0.6-1.3-1c-0.4-0.4-0.7-0.9-0.9-1.4c-0.2-0.5-0.3-1-0.3-1.6
		c0-0.6,0.1-1.1,0.3-1.6c0.2-0.5,0.5-1,0.9-1.4c0.4-0.4,0.8-0.7,1.4-0.9c0.5-0.2,1.1-0.3,1.7-0.3c0.6,0,1.2,0.1,1.7,0.4
		c0.5,0.2,1,0.6,1.3,1c0.4,0.4,0.7,0.9,0.9,1.4s0.3,1,0.3,1.6c0,0.6-0.1,1.1-0.3,1.6c-0.2,0.5-0.5,1-0.9,1.4
		c-0.4,0.4-0.8,0.7-1.4,0.9C58.7,9,58.1,9.1,57.5,9.1z M57.5,7c0.3,0,0.6-0.1,0.9-0.2c0.2-0.1,0.4-0.3,0.6-0.5
		c0.2-0.2,0.3-0.5,0.3-0.7c0.1-0.3,0.1-0.5,0.1-0.8c0-0.3,0-0.6-0.1-0.8c-0.1-0.3-0.2-0.5-0.4-0.7c-0.2-0.2-0.4-0.4-0.6-0.5
		c-0.2-0.1-0.5-0.2-0.9-0.2c-0.3,0-0.6,0.1-0.9,0.2c-0.2,0.1-0.4,0.3-0.6,0.5c-0.2,0.2-0.3,0.5-0.3,0.7c-0.1,0.3-0.1,0.5-0.1,0.8
		c0,0.3,0,0.6,0.1,0.8c0.1,0.3,0.2,0.5,0.4,0.7c0.2,0.2,0.4,0.4,0.6,0.5C56.9,7,57.1,7,57.5,7z M56.5,5.5h2.2L62,9h-2.2L56.5,5.5z"
		/>
	<path d="M62.7,9V0.6h3.9c0.4,0,0.8,0.1,1.1,0.2s0.6,0.4,0.9,0.7c0.3,0.3,0.4,0.6,0.6,0.9c0.1,0.3,0.2,0.7,0.2,1.1
		c0,0.3,0,0.6-0.1,0.9c-0.1,0.3-0.2,0.6-0.4,0.8c-0.2,0.2-0.4,0.5-0.7,0.6L70,9h-2.5L66,6.4H65V9H62.7z M65,4.4h1.5
		c0.1,0,0.2,0,0.3-0.1C66.9,4.3,66.9,4.2,67,4c0.1-0.1,0.1-0.3,0.1-0.5c0-0.2,0-0.4-0.1-0.5c-0.1-0.1-0.2-0.2-0.2-0.3
		c-0.1-0.1-0.2-0.1-0.3-0.1H65V4.4z"/>
</g>
<g>
	<path d="M21,10.2h0.5l-1.3,6h3.6l-0.1,0.4h-4.1L21,10.2z"/>
	<path d="M25.5,11.9h0.5l-1,4.7h-0.5L25.5,11.9z M25.9,10h0.5l-0.2,0.8h-0.5L25.9,10z"/>
	<path d="M26.7,11.9h0.5l0.6,4.2c0.3-0.3,0.5-0.7,0.8-1s0.4-0.7,0.6-1.1c0.2-0.4,0.4-0.7,0.5-1.1c0.1-0.4,0.3-0.7,0.4-1h0.4
		c-0.2,0.8-0.6,1.6-1,2.4c-0.4,0.8-1,1.6-1.6,2.3h-0.5L26.7,11.9z"/>
	<path d="M32.5,16.7c-0.4,0-0.7-0.1-1-0.3c-0.3-0.2-0.5-0.4-0.6-0.7c-0.1-0.3-0.2-0.6-0.2-1c0-0.4,0.1-0.7,0.2-1.1
		c0.1-0.3,0.3-0.6,0.6-0.9c0.2-0.3,0.5-0.5,0.9-0.6c0.3-0.2,0.7-0.2,1.1-0.2c0.3,0,0.5,0,0.8,0.1c0.2,0.1,0.4,0.2,0.6,0.4
		c0.1,0.2,0.2,0.4,0.2,0.7c0,0.5-0.2,0.8-0.6,1c-0.4,0.2-1,0.3-1.8,0.3c-0.2,0-0.4,0-0.7,0c-0.2,0-0.5,0-0.8,0l0.1-0.3
		c0.3,0,0.6,0,0.8,0c0.2,0,0.4,0,0.6,0c0.5,0,0.9,0,1.2-0.1c0.3-0.1,0.5-0.2,0.6-0.3c0.1-0.1,0.2-0.3,0.2-0.5c0-0.2-0.1-0.4-0.2-0.5
		c-0.1-0.1-0.3-0.2-0.4-0.3c-0.2-0.1-0.4-0.1-0.6-0.1c-0.3,0-0.6,0.1-0.9,0.2c-0.3,0.1-0.5,0.3-0.7,0.6c-0.2,0.2-0.3,0.5-0.4,0.8
		c-0.1,0.3-0.2,0.6-0.2,0.9c0,0.3,0.1,0.6,0.2,0.8c0.1,0.3,0.3,0.5,0.5,0.6c0.2,0.1,0.5,0.2,0.8,0.2c0.3,0,0.7-0.1,0.9-0.3
		c0.3-0.2,0.5-0.4,0.7-0.7l0.4,0.1c-0.1,0.2-0.3,0.4-0.5,0.6c-0.2,0.2-0.4,0.3-0.7,0.4C33.1,16.7,32.8,16.7,32.5,16.7z"/>
	<path d="M40.6,10.6h-2.3v6h-0.5v-6h-2.3v-0.4h5.2V10.6z"/>
	<path d="M40.1,15.3c0-0.3,0.1-0.5,0.3-0.7c0.2-0.2,0.4-0.4,0.7-0.5c0.3-0.1,0.6-0.2,1-0.2c0.2,0,0.5,0,0.7,0.1
		c0.3,0,0.5,0.1,0.7,0.2v-0.4c0-0.4-0.1-0.8-0.4-1c-0.2-0.3-0.6-0.4-1-0.4c-0.2,0-0.5,0-0.7,0.1c-0.3,0.1-0.5,0.2-0.8,0.4l-0.2-0.3
		c0.3-0.2,0.6-0.4,0.9-0.5c0.3-0.1,0.6-0.2,0.9-0.2c0.6,0,1,0.2,1.3,0.5c0.3,0.3,0.5,0.8,0.5,1.3V16c0,0.1,0,0.1,0,0.2
		c0,0,0.1,0.1,0.1,0.1v0.4c-0.1,0-0.1,0-0.1,0c0,0-0.1,0-0.1,0c-0.1,0-0.2-0.1-0.3-0.1c-0.1-0.1-0.1-0.2-0.1-0.3v-0.4
		c-0.2,0.3-0.5,0.5-0.8,0.6c-0.3,0.2-0.7,0.2-1.1,0.2c-0.3,0-0.6-0.1-0.8-0.2c-0.2-0.1-0.4-0.3-0.6-0.5
		C40.1,15.8,40.1,15.5,40.1,15.3z M43.3,15.6c0.1-0.1,0.1-0.2,0.1-0.2s0-0.1,0-0.2v-0.8c-0.2-0.1-0.4-0.1-0.7-0.2
		c-0.2,0-0.5-0.1-0.7-0.1c-0.5,0-0.9,0.1-1.1,0.3c-0.3,0.2-0.4,0.4-0.4,0.8c0,0.2,0.1,0.4,0.2,0.5c0.1,0.2,0.2,0.3,0.4,0.4
		c0.2,0.1,0.4,0.2,0.6,0.2c0.3,0,0.6-0.1,0.9-0.2C42.9,16,43.2,15.8,43.3,15.6z"/>
	<path d="M47.2,16.7c-0.3,0-0.6-0.1-0.9-0.2c-0.3-0.1-0.5-0.3-0.7-0.5c-0.2-0.2-0.3-0.5-0.5-0.8C45,14.9,45,14.6,45,14.3
		c0-0.3,0.1-0.6,0.2-0.9c0.1-0.3,0.3-0.6,0.5-0.8c0.2-0.2,0.4-0.4,0.7-0.5c0.3-0.1,0.6-0.2,0.9-0.2c0.4,0,0.8,0.1,1.1,0.3
		c0.3,0.2,0.6,0.5,0.8,0.8v-1h0.4v4.8c0,0.4-0.1,0.8-0.3,1.1c-0.2,0.3-0.5,0.5-0.8,0.6c-0.3,0.1-0.7,0.2-1.1,0.2
		c-0.5,0-1-0.1-1.3-0.3c-0.3-0.2-0.6-0.5-0.8-0.8l0.3-0.2c0.2,0.3,0.4,0.5,0.8,0.7c0.3,0.1,0.7,0.2,1,0.2c0.3,0,0.6-0.1,0.9-0.2
		c0.3-0.1,0.5-0.3,0.6-0.5c0.2-0.2,0.2-0.5,0.2-0.8v-1c-0.2,0.3-0.4,0.6-0.8,0.7C47.9,16.6,47.5,16.7,47.2,16.7z M47.3,16.3
		c0.2,0,0.4,0,0.6-0.1c0.2-0.1,0.4-0.2,0.5-0.3s0.3-0.3,0.4-0.4S49,15.2,49,15v-1.5c-0.1-0.2-0.2-0.5-0.4-0.6
		c-0.2-0.2-0.4-0.3-0.6-0.4c-0.2-0.1-0.5-0.2-0.7-0.2c-0.3,0-0.5,0.1-0.8,0.2c-0.2,0.1-0.4,0.3-0.6,0.5c-0.2,0.2-0.3,0.4-0.4,0.7
		c-0.1,0.2-0.1,0.5-0.1,0.7c0,0.3,0,0.5,0.1,0.8c0.1,0.2,0.2,0.5,0.4,0.6c0.2,0.2,0.4,0.3,0.6,0.4C46.8,16.3,47,16.3,47.3,16.3z"/>
</g>
<path d="M0,4.1V0.6h3.5v1.2H1.2v2.3H0z M0,16.6v-3.5h1.2v2.3h2.3v1.2H0z M12.5,16.6v-1.2h2.3v-2.3H16v3.5H12.5z M14.8,4.1V1.8h-2.3
	V0.6H16v3.5H14.8z M12.6,13.2h1.3v1.3h-1.3V13.2z M12.6,10.7h1.3v1.3h-1.3V10.7z M11.3,11.9h1.3v1.3h-1.3V11.9z M10,13.2h1.3v1.3H10
	V13.2z M8.8,11.9H10v1.3H8.8V11.9z M11.3,9.4h1.3v1.3h-1.3V9.4z M10,10.7h1.3v1.3H10V10.7z M8.8,9.4H10v1.3H8.8V9.4z M13.8,2.8v5h-5
	v-5H13.8z M7.2,9.4v5h-5v-5H7.2z M7.2,2.8v5h-5v-5H7.2z M6.2,13.4v-3h-3v3H6.2z M6.2,6.8v-3h-3v3H6.2z M12.8,6.8v-3h-3v3H12.8z"/>
</svg>
